<svg width="10" height="10" viewBox="0 0 10 10" fill="none" xmlns="http://www.w3.org/2000/svg">
  <path fill-rule="evenodd" clip-rule="evenodd"
    d="M3.71271 1.27836C1.83006 2.48744 0.784172 3.89466 0.57503 5.50009C0.249442 7.99936 2.48449 9.22269 3.61697 8.12354C4.74944 7.02441 4.07059 5.62926 3.25056 5.24791C2.43054 4.86654 1.92906 4.99936 2.01654 4.48976C2.10401 3.98014 3.27066 2.56719 4.29561 1.90916C4.36362 1.85134 4.38949 1.73914 4.32401 1.65404C4.28094 1.59804 4.19646 1.48825 4.07059 1.32464C3.96051 1.18158 3.85506 1.18693 3.71271 1.27836Z"
    fill="#C5A994" />
  <path fill-rule="evenodd" clip-rule="evenodd"
    d="M8.66973 1.27836C6.78711 2.48744 5.74121 3.89466 5.53206 5.50009C5.20648 7.99936 7.44153 9.22269 8.57401 8.12354C9.70648 7.02441 9.02763 5.62926 8.20761 5.24791C7.38758 4.86654 6.88608 4.99936 6.97358 4.48976C7.06106 3.98014 8.22771 2.56719 9.25266 1.90916C9.32066 1.85134 9.34653 1.73914 9.28103 1.65404C9.23798 1.59804 9.15351 1.48825 9.02763 1.32464C8.91756 1.18158 8.81211 1.18693 8.66973 1.27836Z"
    fill="#C5A994" />
</svg>