<svg width="12" height="12" viewBox="0 0 12 12" fill="none" xmlns="http://www.w3.org/2000/svg">
<path d="M11.5316 0.468277C10.9071 -0.156092 9.90016 -0.156092 9.27562 0.468277L6 3.7494L2.72438 0.474649C2.09984 -0.149721 1.09294 -0.149721 0.468401 0.474649C-0.156134 1.09902 -0.156134 2.10565 0.468401 2.73002L3.74403 6.00478L0.468401 9.27953C-0.156134 9.9039 -0.156134 10.9105 0.468401 11.5349C0.780669 11.8471 1.18853 12 1.59639 12C2.00425 12 2.41211 11.8471 2.72438 11.5349L6 8.26015L9.27562 11.5349C9.58789 11.8471 9.99575 12 10.4036 12C10.8115 12 11.2193 11.8471 11.5316 11.5349C12.1561 10.9105 12.1561 9.9039 11.5316 9.27953L8.25597 5.99841L11.5316 2.72365C12.1561 2.09928 12.1561 1.09265 11.5316 0.468277Z" fill="#E98B79"/>
</svg>
