<svg width="100" height="100" viewBox="0 0 100 100" fill="none" xmlns="http://www.w3.org/2000/svg">
<circle cx="50" cy="50" r="50" fill="#FCF8F5"/>
<path d="M53.1983 77.8558C56.3253 77.3529 60.9409 71.3707 60.9409 68.2471C60.9409 65.8383 59.2534 64.1176 56.9704 64.1176C55.0348 64.1176 53.4463 65.6793 52.9998 66.8971C52.5532 65.6793 50.9647 64.1176 49.0292 64.1176C46.7461 64.1176 45.0586 65.8383 45.0586 68.2471C45.0586 71.3707 49.6745 77.3529 52.8012 77.8558C52.8667 77.8699 52.9331 77.8788 52.9998 77.8824C53.0646 77.8647 53.1313 77.8557 53.1983 77.8558V77.8558Z" stroke="#C5A994" stroke-miterlimit="10" stroke-linecap="round" stroke-linejoin="round"/>
<path d="M48.2415 77.3795C52.0634 76.7648 57.7047 69.4533 57.7047 65.6354C57.7047 62.6914 55.6422 60.5884 52.8518 60.5884C50.4861 60.5884 48.5446 62.4971 47.9989 63.9855C47.4531 62.4971 45.5116 60.5884 43.1459 60.5884C40.3555 60.5884 38.293 62.6914 38.293 65.6354C38.293 69.4533 43.9347 76.7648 47.7562 77.3795C47.8362 77.3967 47.9173 77.4076 47.9989 77.4119C48.0781 77.3903 48.1597 77.3794 48.2415 77.3795V77.3795Z" stroke="#877569" stroke-miterlimit="10" stroke-linecap="round" stroke-linejoin="round"/>
<path d="M22.6518 35.144C21.9078 35.144 21.2438 34.972 20.6598 34.628C20.0838 34.276 19.6358 33.804 19.3158 33.212C19.0038 32.612 18.8478 31.96 18.8478 31.256C18.8478 30.432 19.0558 29.728 19.4718 29.144C19.8878 28.552 20.4198 28.108 21.0678 27.812C21.7238 27.516 22.3918 27.368 23.0718 27.368C23.8318 27.368 24.4998 27.548 25.0758 27.908C25.6518 28.26 26.0918 28.728 26.3958 29.312C26.7078 29.896 26.8638 30.516 26.8638 31.172C26.8638 31.9 26.6718 32.568 26.2878 33.176C25.9038 33.784 25.3878 34.264 24.7398 34.616C24.0998 34.968 23.4038 35.144 22.6518 35.144ZM23.0478 34.844C23.4958 34.844 23.8958 34.716 24.2478 34.46C24.6078 34.196 24.8878 33.816 25.0878 33.32C25.2878 32.816 25.3878 32.216 25.3878 31.52C25.3878 30.784 25.2758 30.128 25.0518 29.552C24.8278 28.968 24.5038 28.512 24.0798 28.184C23.6558 27.856 23.1598 27.692 22.5918 27.692C21.8638 27.692 21.3038 27.968 20.9118 28.52C20.5198 29.064 20.3238 29.828 20.3238 30.812C20.3238 31.588 20.4398 32.284 20.6718 32.9C20.9118 33.508 21.2358 33.984 21.6438 34.328C22.0598 34.672 22.5278 34.844 23.0478 34.844ZM35.9433 34.856C35.9593 34.856 35.9673 34.88 35.9673 34.928C35.9673 34.976 35.9593 35 35.9433 35H33.8073C33.6313 35 33.3033 34.672 32.8233 34.016C32.3433 33.352 31.7633 32.428 31.0833 31.244C31.0193 31.252 30.9273 31.256 30.8073 31.256C30.4953 31.256 30.2753 31.252 30.1473 31.244V34.028C30.1473 34.276 30.1673 34.456 30.2073 34.568C30.2473 34.68 30.3233 34.756 30.4353 34.796C30.5553 34.836 30.7433 34.856 30.9993 34.856C31.0153 34.856 31.0233 34.88 31.0233 34.928C31.0233 34.976 31.0153 35 30.9993 35C30.7353 35 30.5273 34.996 30.3753 34.988L29.4633 34.976L28.5873 34.988C28.4273 34.996 28.2113 35 27.9393 35C27.9153 35 27.9033 34.976 27.9033 34.928C27.9033 34.88 27.9153 34.856 27.9393 34.856C28.1953 34.856 28.3793 34.836 28.4913 34.796C28.6113 34.756 28.6913 34.68 28.7313 34.568C28.7793 34.448 28.8033 34.268 28.8033 34.028V28.472C28.8033 28.232 28.7833 28.056 28.7433 27.944C28.7033 27.832 28.6233 27.756 28.5033 27.716C28.3833 27.668 28.1993 27.644 27.9513 27.644C27.9353 27.644 27.9273 27.62 27.9273 27.572C27.9273 27.524 27.9353 27.5 27.9513 27.5L28.5873 27.512C28.9553 27.528 29.2473 27.536 29.4633 27.536C29.6953 27.536 29.9513 27.524 30.2313 27.5C30.3193 27.492 30.4313 27.484 30.5673 27.476C30.7113 27.468 30.8793 27.464 31.0713 27.464C31.8073 27.464 32.3753 27.6 32.7753 27.872C33.1833 28.136 33.3873 28.508 33.3873 28.988C33.3873 29.356 33.2753 29.708 33.0513 30.044C32.8273 30.38 32.5353 30.652 32.1753 30.86C32.8153 31.868 33.3513 32.656 33.7833 33.224C34.2233 33.792 34.6113 34.208 34.9473 34.472C35.2913 34.728 35.6233 34.856 35.9433 34.856ZM30.1473 30.896C30.3393 30.928 30.5713 30.944 30.8433 30.944C31.1313 30.944 31.3593 30.9 31.5273 30.812C31.6953 30.724 31.8153 30.572 31.8873 30.356C31.9673 30.14 32.0073 29.836 32.0073 29.444C32.0073 28.788 31.9113 28.336 31.7193 28.088C31.5273 27.84 31.2513 27.716 30.8913 27.716C30.6193 27.716 30.4273 27.776 30.3153 27.896C30.2033 28.016 30.1473 28.216 30.1473 28.496V30.896ZM41.7782 33.092C41.7782 33.076 41.7942 33.068 41.8262 33.068C41.8502 33.068 41.8702 33.076 41.8862 33.092C41.9102 33.1 41.9222 33.108 41.9222 33.116C41.8422 33.74 41.8022 34.308 41.8022 34.82C41.8022 34.884 41.7902 34.932 41.7662 34.964C41.7422 34.988 41.6942 35 41.6222 35H36.3182C36.2942 35 36.2822 34.976 36.2822 34.928C36.2822 34.88 36.2942 34.856 36.3182 34.856C36.5742 34.856 36.7582 34.836 36.8702 34.796C36.9902 34.756 37.0702 34.68 37.1102 34.568C37.1502 34.448 37.1702 34.268 37.1702 34.028V28.472C37.1702 28.232 37.1502 28.056 37.1102 27.944C37.0702 27.832 36.9902 27.756 36.8702 27.716C36.7502 27.668 36.5662 27.644 36.3182 27.644C36.2942 27.644 36.2822 27.62 36.2822 27.572C36.2822 27.524 36.2942 27.5 36.3182 27.5H41.4062C41.4862 27.5 41.5262 27.536 41.5262 27.608L41.5502 29.204C41.5502 29.22 41.5262 29.232 41.4782 29.24C41.4382 29.248 41.4142 29.24 41.4062 29.216C41.2782 28.752 41.0622 28.408 40.7582 28.184C40.4542 27.96 40.0542 27.848 39.5582 27.848H39.1982C38.9582 27.848 38.7822 27.9 38.6702 28.004C38.5582 28.108 38.5022 28.268 38.5022 28.484V30.932H39.4982C39.9622 30.932 40.3182 30.852 40.5662 30.692C40.8142 30.532 40.9382 30.308 40.9382 30.02C40.9382 29.996 40.9582 29.984 40.9982 29.984C41.0462 29.984 41.0702 29.996 41.0702 30.02L41.0582 31.1L41.0702 31.676C41.0862 31.948 41.0942 32.164 41.0942 32.324C41.0942 32.34 41.0702 32.348 41.0222 32.348C40.9742 32.348 40.9502 32.34 40.9502 32.324C40.9502 31.996 40.8222 31.74 40.5662 31.556C40.3182 31.364 39.9582 31.268 39.4862 31.268H38.5022V33.98C38.5022 34.212 38.5462 34.384 38.6342 34.496C38.7222 34.608 38.8622 34.664 39.0542 34.664H39.4502C40.0742 34.664 40.5742 34.536 40.9502 34.28C41.3262 34.024 41.6022 33.628 41.7782 33.092ZM51.1233 27.5C51.1393 27.5 51.1473 27.524 51.1473 27.572C51.1473 27.62 51.1393 27.644 51.1233 27.644C50.8033 27.644 50.5513 27.772 50.3673 28.028C50.1833 28.276 50.0913 28.612 50.0913 29.036V35.18C50.0913 35.204 50.0713 35.22 50.0313 35.228C49.9993 35.236 49.9753 35.232 49.9593 35.216L44.3313 28.808V33.476C44.3313 33.9 44.4193 34.236 44.5953 34.484C44.7713 34.732 45.0153 34.856 45.3273 34.856C45.3433 34.856 45.3513 34.88 45.3513 34.928C45.3513 34.976 45.3433 35 45.3273 35C45.1033 35 44.9313 34.996 44.8113 34.988L44.1633 34.976L43.4193 34.988C43.2833 34.996 43.0873 35 42.8313 35C42.8073 35 42.7953 34.976 42.7953 34.928C42.7953 34.88 42.8073 34.856 42.8313 34.856C43.1833 34.856 43.4593 34.732 43.6593 34.484C43.8673 34.236 43.9713 33.9 43.9713 33.476V28.4C43.7073 28.112 43.4793 27.916 43.2873 27.812C43.1033 27.7 42.9113 27.644 42.7113 27.644C42.6953 27.644 42.6873 27.62 42.6873 27.572C42.6873 27.524 42.6953 27.5 42.7113 27.5L43.2153 27.512C43.3193 27.52 43.4713 27.524 43.6713 27.524L44.5833 27.512C44.6953 27.504 44.8313 27.5 44.9913 27.5C45.0553 27.5 45.1033 27.516 45.1353 27.548C45.1673 27.58 45.2233 27.648 45.3033 27.752C45.4393 27.936 45.5353 28.06 45.5913 28.124L49.7433 32.912V29.036C49.7433 28.604 49.6553 28.264 49.4793 28.016C49.3033 27.768 49.0593 27.644 48.7473 27.644C48.7313 27.644 48.7233 27.62 48.7233 27.572C48.7233 27.524 48.7313 27.5 48.7473 27.5L49.2633 27.512C49.5193 27.528 49.7353 27.536 49.9113 27.536C50.0713 27.536 50.2953 27.528 50.5833 27.512L51.1233 27.5ZM53.3595 28.712C53.3595 29 53.4315 29.256 53.5755 29.48C53.7275 29.704 53.9115 29.9 54.1275 30.068C54.3435 30.236 54.6355 30.44 55.0035 30.68C55.4035 30.936 55.7235 31.16 55.9635 31.352C56.2035 31.544 56.4075 31.78 56.5755 32.06C56.7435 32.332 56.8275 32.648 56.8275 33.008C56.8275 33.424 56.7155 33.796 56.4915 34.124C56.2675 34.444 55.9555 34.696 55.5555 34.88C55.1635 35.056 54.7235 35.144 54.2355 35.144C53.8755 35.144 53.4995 35.096 53.1075 35C52.7155 34.896 52.4515 34.784 52.3155 34.664C52.2755 34.632 52.2435 34.604 52.2195 34.58C52.2035 34.548 52.1955 34.5 52.1955 34.436L52.1595 32.528V32.516C52.1595 32.484 52.1795 32.468 52.2195 32.468C52.2595 32.46 52.2835 32.472 52.2915 32.504C52.5315 32.992 52.7395 33.388 52.9155 33.692C53.0995 33.996 53.3275 34.264 53.5995 34.496C53.8795 34.728 54.1955 34.844 54.5475 34.844C54.8675 34.844 55.1315 34.76 55.3395 34.592C55.5475 34.416 55.6515 34.12 55.6515 33.704C55.6515 33.352 55.5715 33.044 55.4115 32.78C55.2595 32.516 55.0715 32.292 54.8475 32.108C54.6235 31.924 54.3155 31.704 53.9235 31.448C53.5395 31.2 53.2395 30.988 53.0235 30.812C52.8155 30.636 52.6355 30.424 52.4835 30.176C52.3315 29.928 52.2555 29.636 52.2555 29.3C52.2555 28.876 52.3755 28.52 52.6155 28.232C52.8635 27.936 53.1795 27.72 53.5635 27.584C53.9475 27.44 54.3515 27.368 54.7755 27.368C55.0555 27.368 55.3395 27.396 55.6275 27.452C55.9155 27.5 56.1475 27.56 56.3235 27.632C56.3955 27.664 56.4435 27.7 56.4675 27.74C56.4915 27.772 56.5035 27.816 56.5035 27.872V29.636C56.5035 29.66 56.4835 29.68 56.4435 29.696C56.4035 29.704 56.3795 29.696 56.3715 29.672L56.2755 29.444C56.0755 28.94 55.8395 28.512 55.5675 28.16C55.3035 27.808 54.9315 27.632 54.4515 27.632C54.1315 27.632 53.8675 27.724 53.6595 27.908C53.4595 28.092 53.3595 28.36 53.3595 28.712ZM66.2313 34.856C66.2553 34.856 66.2673 34.88 66.2673 34.928C66.2673 34.976 66.2553 35 66.2313 35C65.9513 35 65.7273 34.996 65.5593 34.988L64.6353 34.976L63.5553 34.988C63.4113 34.996 63.2153 35 62.9673 35C62.9433 35 62.9313 34.976 62.9313 34.928C62.9313 34.88 62.9433 34.856 62.9673 34.856C63.2633 34.856 63.4793 34.836 63.6153 34.796C63.7513 34.756 63.8433 34.68 63.8913 34.568C63.9393 34.456 63.9633 34.276 63.9633 34.028V31.268H60.0873V34.028C60.0873 34.268 60.1113 34.448 60.1593 34.568C60.2073 34.68 60.2993 34.756 60.4353 34.796C60.5713 34.836 60.7873 34.856 61.0833 34.856C61.0993 34.856 61.1073 34.88 61.1073 34.928C61.1073 34.976 61.0993 35 61.0833 35C60.8033 35 60.5793 34.996 60.4113 34.988L59.3673 34.976L58.4673 34.988C58.3073 34.996 58.0873 35 57.8073 35C57.7913 35 57.7833 34.976 57.7833 34.928C57.7833 34.88 57.7913 34.856 57.8073 34.856C58.0873 34.856 58.2913 34.836 58.4193 34.796C58.5473 34.756 58.6353 34.68 58.6833 34.568C58.7313 34.448 58.7553 34.268 58.7553 34.028V28.472C58.7553 28.232 58.7313 28.056 58.6833 27.944C58.6353 27.832 58.5473 27.756 58.4193 27.716C58.2993 27.668 58.1033 27.644 57.8313 27.644C57.8073 27.644 57.7953 27.62 57.7953 27.572C57.7953 27.524 57.8073 27.5 57.8313 27.5L58.4793 27.512C58.8473 27.528 59.1433 27.536 59.3673 27.536C59.6713 27.536 60.0233 27.528 60.4233 27.512L61.0833 27.5C61.0993 27.5 61.1073 27.524 61.1073 27.572C61.1073 27.62 61.0993 27.644 61.0833 27.644C60.7953 27.644 60.5833 27.668 60.4473 27.716C60.3113 27.764 60.2153 27.848 60.1593 27.968C60.1113 28.08 60.0873 28.256 60.0873 28.496V30.932H63.9633V28.496C63.9633 28.256 63.9393 28.08 63.8913 27.968C63.8433 27.848 63.7513 27.764 63.6153 27.716C63.4793 27.668 63.2633 27.644 62.9673 27.644C62.9433 27.644 62.9313 27.62 62.9313 27.572C62.9313 27.524 62.9433 27.5 62.9673 27.5L63.5553 27.512C63.9553 27.528 64.3153 27.536 64.6353 27.536C64.8513 27.536 65.1593 27.528 65.5593 27.512L66.2313 27.5C66.2553 27.5 66.2673 27.524 66.2673 27.572C66.2673 27.62 66.2553 27.644 66.2313 27.644C65.9593 27.644 65.7553 27.668 65.6193 27.716C65.4913 27.756 65.4033 27.832 65.3553 27.944C65.3153 28.056 65.2953 28.232 65.2953 28.472V34.028C65.2953 34.268 65.3153 34.448 65.3553 34.568C65.4033 34.68 65.4913 34.756 65.6193 34.796C65.7473 34.836 65.9513 34.856 66.2313 34.856ZM75.2153 34.856C75.2553 34.856 75.2753 34.88 75.2753 34.928C75.2753 34.976 75.2553 35 75.2153 35C75.0553 35 74.8073 34.992 74.4713 34.976C74.1193 34.96 73.8673 34.952 73.7153 34.952C73.5153 34.952 73.2713 34.96 72.9833 34.976C72.7113 34.992 72.4953 35 72.3353 35C72.3033 35 72.2873 34.976 72.2873 34.928C72.2873 34.88 72.3033 34.856 72.3353 34.856C72.5433 34.856 72.6913 34.836 72.7793 34.796C72.8753 34.748 72.9233 34.668 72.9233 34.556C72.9233 34.42 72.8433 34.192 72.6833 33.872L71.4353 31.412H69.2993L68.4473 33.296C68.3433 33.528 68.2913 33.744 68.2913 33.944C68.2913 34.232 68.3913 34.456 68.5913 34.616C68.7993 34.776 69.0753 34.856 69.4193 34.856C69.4593 34.856 69.4793 34.88 69.4793 34.928C69.4793 34.976 69.4593 35 69.4193 35C69.2753 35 69.0673 34.992 68.7953 34.976C68.4913 34.96 68.2273 34.952 68.0033 34.952C67.7873 34.952 67.5273 34.96 67.2233 34.976C66.9513 34.992 66.7313 35 66.5633 35C66.5313 35 66.5153 34.976 66.5153 34.928C66.5153 34.88 66.5313 34.856 66.5633 34.856C66.7873 34.856 66.9753 34.812 67.1273 34.724C67.2793 34.628 67.4313 34.464 67.5833 34.232C67.7353 33.992 67.9153 33.64 68.1233 33.176L70.7273 27.452C70.7433 27.428 70.7793 27.416 70.8353 27.416C70.8993 27.416 70.9353 27.428 70.9433 27.452L73.9433 33.356C74.2233 33.924 74.4553 34.316 74.6393 34.532C74.8233 34.748 75.0153 34.856 75.2153 34.856ZM69.4553 31.076H71.2673L70.3073 29.18L69.4553 31.076ZM77.7572 33.98C77.7572 34.188 77.7732 34.34 77.8052 34.436C77.8372 34.524 77.8972 34.584 77.9852 34.616C78.0812 34.648 78.2332 34.664 78.4412 34.664H78.8492C79.4732 34.664 80.0132 34.5 80.4692 34.172C80.9252 33.836 81.2292 33.384 81.3812 32.816C81.3812 32.8 81.3972 32.792 81.4292 32.792C81.4452 32.792 81.4612 32.8 81.4772 32.816C81.5012 32.824 81.5132 32.832 81.5132 32.84C81.4412 33.632 81.4052 34.292 81.4052 34.82C81.4052 34.884 81.3892 34.932 81.3572 34.964C81.3332 34.988 81.2892 35 81.2252 35H75.5612C75.5452 35 75.5372 34.976 75.5372 34.928C75.5372 34.88 75.5452 34.856 75.5612 34.856C75.8172 34.856 76.0012 34.836 76.1132 34.796C76.2332 34.756 76.3132 34.68 76.3532 34.568C76.4012 34.448 76.4252 34.268 76.4252 34.028V28.472C76.4252 28.232 76.4012 28.056 76.3532 27.944C76.3132 27.832 76.2332 27.756 76.1132 27.716C75.9932 27.668 75.8092 27.644 75.5612 27.644C75.5452 27.644 75.5372 27.62 75.5372 27.572C75.5372 27.524 75.5452 27.5 75.5612 27.5L76.1732 27.512C76.5412 27.528 76.8452 27.536 77.0852 27.536C77.3252 27.536 77.6292 27.528 77.9972 27.512L78.6092 27.5C78.6332 27.5 78.6452 27.524 78.6452 27.572C78.6452 27.62 78.6332 27.644 78.6092 27.644C78.3612 27.644 78.1772 27.668 78.0572 27.716C77.9372 27.756 77.8572 27.836 77.8172 27.956C77.7772 28.068 77.7572 28.244 77.7572 28.484V33.98ZM39.9817 42.368C40.3337 42.368 40.7017 42.4 41.0857 42.464C41.4697 42.52 41.7697 42.596 41.9857 42.692C42.0577 42.716 42.1017 42.748 42.1177 42.788C42.1417 42.82 42.1617 42.88 42.1777 42.968L42.3217 44.636C42.3217 44.66 42.3017 44.676 42.2617 44.684C42.2217 44.692 42.1977 44.68 42.1897 44.648C41.9177 44.016 41.5537 43.528 41.0977 43.184C40.6417 42.84 40.1137 42.668 39.5137 42.668C38.7217 42.668 38.1097 42.96 37.6777 43.544C37.2457 44.128 37.0297 44.912 37.0297 45.896C37.0297 46.632 37.1457 47.304 37.3777 47.912C37.6177 48.52 37.9497 49.004 38.3737 49.364C38.8057 49.716 39.2937 49.892 39.8377 49.892C40.3497 49.892 40.8057 49.724 41.2057 49.388C41.6137 49.044 41.9777 48.524 42.2977 47.828C42.3057 47.796 42.3297 47.784 42.3697 47.792C42.4177 47.8 42.4417 47.816 42.4417 47.84L42.2617 49.472C42.2457 49.568 42.2257 49.632 42.2017 49.664C42.1857 49.688 42.1417 49.716 42.0697 49.748C41.3577 50.012 40.6257 50.144 39.8737 50.144C38.8977 50.144 38.0817 49.952 37.4257 49.568C36.7697 49.176 36.2857 48.684 35.9737 48.092C35.6697 47.492 35.5177 46.868 35.5177 46.22C35.5177 45.46 35.7217 44.788 36.1297 44.204C36.5457 43.62 37.0937 43.168 37.7737 42.848C38.4617 42.528 39.1977 42.368 39.9817 42.368ZM45.513 48.98C45.513 49.188 45.529 49.34 45.561 49.436C45.593 49.524 45.653 49.584 45.741 49.616C45.837 49.648 45.989 49.664 46.197 49.664H46.605C47.229 49.664 47.769 49.5 48.225 49.172C48.681 48.836 48.985 48.384 49.137 47.816C49.137 47.8 49.153 47.792 49.185 47.792C49.201 47.792 49.217 47.8 49.233 47.816C49.257 47.824 49.269 47.832 49.269 47.84C49.197 48.632 49.161 49.292 49.161 49.82C49.161 49.884 49.145 49.932 49.113 49.964C49.089 49.988 49.045 50 48.981 50H43.317C43.301 50 43.293 49.976 43.293 49.928C43.293 49.88 43.301 49.856 43.317 49.856C43.573 49.856 43.757 49.836 43.869 49.796C43.989 49.756 44.069 49.68 44.109 49.568C44.157 49.448 44.181 49.268 44.181 49.028V43.472C44.181 43.232 44.157 43.056 44.109 42.944C44.069 42.832 43.989 42.756 43.869 42.716C43.749 42.668 43.565 42.644 43.317 42.644C43.301 42.644 43.293 42.62 43.293 42.572C43.293 42.524 43.301 42.5 43.317 42.5L43.929 42.512C44.297 42.528 44.601 42.536 44.841 42.536C45.081 42.536 45.385 42.528 45.753 42.512L46.365 42.5C46.389 42.5 46.401 42.524 46.401 42.572C46.401 42.62 46.389 42.644 46.365 42.644C46.117 42.644 45.933 42.668 45.813 42.716C45.693 42.756 45.613 42.836 45.573 42.956C45.533 43.068 45.513 43.244 45.513 43.484V48.98ZM56.3481 44.036C56.3481 43.604 56.2481 43.264 56.0481 43.016C55.8561 42.768 55.5841 42.644 55.2321 42.644C55.2161 42.644 55.2081 42.62 55.2081 42.572C55.2081 42.524 55.2161 42.5 55.2321 42.5L55.8081 42.512C56.1121 42.528 56.3561 42.536 56.5401 42.536C56.6921 42.536 56.9121 42.528 57.2001 42.512L57.7521 42.5C57.7681 42.5 57.7761 42.524 57.7761 42.572C57.7761 42.62 57.7681 42.644 57.7521 42.644C57.4401 42.644 57.1961 42.768 57.0201 43.016C56.8441 43.264 56.7561 43.604 56.7561 44.036V47.372C56.7561 47.932 56.6321 48.424 56.3841 48.848C56.1361 49.272 55.7841 49.6 55.3281 49.832C54.8801 50.056 54.3601 50.168 53.7681 50.168C53.1761 50.168 52.6521 50.056 52.1961 49.832C51.7401 49.608 51.3801 49.284 51.1161 48.86C50.8601 48.428 50.7321 47.924 50.7321 47.348V43.472C50.7321 43.232 50.7081 43.056 50.6601 42.944C50.6201 42.832 50.5401 42.756 50.4201 42.716C50.3081 42.668 50.1281 42.644 49.8801 42.644C49.8561 42.644 49.8441 42.62 49.8441 42.572C49.8441 42.524 49.8561 42.5 49.8801 42.5L50.5161 42.512C50.8841 42.528 51.1761 42.536 51.3921 42.536C51.6321 42.536 51.9361 42.528 52.3041 42.512L52.9161 42.5C52.9401 42.5 52.9521 42.524 52.9521 42.572C52.9521 42.62 52.9401 42.644 52.9161 42.644C52.6681 42.644 52.4841 42.668 52.3641 42.716C52.2521 42.764 52.1721 42.848 52.1241 42.968C52.0841 43.08 52.0641 43.256 52.0641 43.496V46.928C52.0641 47.88 52.2521 48.584 52.6281 49.04C53.0041 49.496 53.5361 49.724 54.2241 49.724C54.8881 49.724 55.4081 49.524 55.7841 49.124C56.1601 48.716 56.3481 48.136 56.3481 47.384V44.036ZM62.2536 45.788C62.9256 45.868 63.4576 46.092 63.8496 46.46C64.2496 46.828 64.4496 47.284 64.4496 47.828C64.4496 48.244 64.3296 48.62 64.0896 48.956C63.8496 49.292 63.5176 49.56 63.0936 49.76C62.6696 49.952 62.1976 50.048 61.6776 50.048C61.4536 50.048 61.1976 50.036 60.9096 50.012C60.7976 50.004 60.6576 49.996 60.4896 49.988C60.3296 49.98 60.1496 49.976 59.9496 49.976L59.0736 49.988C58.9136 49.996 58.6976 50 58.4256 50C58.4016 50 58.3896 49.976 58.3896 49.928C58.3896 49.88 58.4016 49.856 58.4256 49.856C58.6576 49.856 58.8336 49.836 58.9536 49.796C59.0736 49.748 59.1576 49.668 59.2056 49.556C59.2616 49.436 59.2896 49.26 59.2896 49.028V43.472C59.2896 43.136 59.2336 42.916 59.1216 42.812C59.0096 42.7 58.7816 42.644 58.4376 42.644C58.4216 42.644 58.4136 42.62 58.4136 42.572C58.4136 42.524 58.4216 42.5 58.4376 42.5L59.0736 42.512C59.4416 42.528 59.7336 42.536 59.9496 42.536C60.1736 42.536 60.4056 42.524 60.6456 42.5C60.7256 42.492 60.8456 42.484 61.0056 42.476C61.1656 42.468 61.3056 42.464 61.4256 42.464C62.1536 42.464 62.7176 42.596 63.1176 42.86C63.5176 43.124 63.7176 43.508 63.7176 44.012C63.7176 44.396 63.5896 44.744 63.3336 45.056C63.0856 45.368 62.7256 45.612 62.2536 45.788ZM61.2456 42.728C61.0136 42.728 60.8536 42.784 60.7656 42.896C60.6776 43 60.6336 43.2 60.6336 43.496V45.776L61.1136 45.788C61.5296 45.788 61.8496 45.632 62.0736 45.32C62.2976 45.008 62.4096 44.608 62.4096 44.12C62.4096 43.664 62.3096 43.32 62.1096 43.088C61.9096 42.848 61.6216 42.728 61.2456 42.728ZM61.4736 49.748C62.5216 49.748 63.0456 49.204 63.0456 48.116C63.0456 47.5 62.8976 47.012 62.6016 46.652C62.3056 46.292 61.8576 46.112 61.2576 46.112C61.0256 46.112 60.8176 46.12 60.6336 46.136V49.028C60.6336 49.292 60.6856 49.48 60.7896 49.592C60.8936 49.696 61.1216 49.748 61.4736 49.748Z" fill="#877569"/>
</svg>
