<svg width="50" height="50" viewBox="0 0 50 50" fill="none" xmlns="http://www.w3.org/2000/svg">
  <path
    d="M25.5 32C30.1944 32 34 28.1944 34 23.5C34 18.8056 30.1944 15 25.5 15C20.8056 15 17 18.8056 17 23.5C17 28.1944 20.8056 32 25.5 32Z"
    stroke="#BDA08F" stroke-linecap="round" stroke-linejoin="round" />
  <path
    d="M10 43C11.0267 39.8034 13.0314 37.017 15.7264 35.0408C18.4213 33.0645 21.6679 32 25.0001 32C28.3322 32 31.5787 33.0644 34.2735 35.0406C36.9684 37.0167 38.9731 39.8028 40 42.9992"
    stroke="#BDA08F" stroke-linecap="round" stroke-linejoin="round" />
  <path
    d="M25 48.4375C37.9442 48.4375 48.4375 37.9442 48.4375 25C48.4375 12.0558 37.9442 1.5625 25 1.5625C12.0558 1.5625 1.5625 12.0558 1.5625 25C1.5625 37.9442 12.0558 48.4375 25 48.4375Z"
    stroke="#BDA08F" stroke-linecap="round" stroke-linejoin="round" />
</svg>