<svg width="146" height="33" viewBox="0 0 146 33" fill="none" xmlns="http://www.w3.org/2000/svg">
<path d="M9.64449 18.336C7.90848 18.336 6.35915 17.9347 4.99648 17.132C3.65248 16.3107 2.60715 15.2093 1.86048 13.828C1.13248 12.428 0.768484 10.9067 0.768484 9.264C0.768484 7.34133 1.25382 5.69867 2.22448 4.336C3.19515 2.95467 4.43648 1.91867 5.94848 1.228C7.47915 0.537332 9.03782 0.191999 10.6245 0.191999C12.3978 0.191999 13.9565 0.611999 15.3005 1.452C16.6445 2.27333 17.6712 3.36533 18.3805 4.728C19.1085 6.09067 19.4725 7.53733 19.4725 9.068C19.4725 10.7667 19.0245 12.3253 18.1285 13.744C17.2325 15.1627 16.0285 16.2827 14.5165 17.104C13.0232 17.9253 11.3992 18.336 9.64449 18.336ZM10.6245 17.72C11.8192 17.72 12.8925 17.412 13.8445 16.796C14.7965 16.18 15.5432 15.284 16.0845 14.108C16.6445 12.9133 16.9245 11.4947 16.9245 9.852C16.9245 8.116 16.6165 6.56667 16.0005 5.204C15.4032 3.84133 14.5352 2.77733 13.3965 2.012C12.2765 1.24667 10.9698 0.863999 9.47648 0.863999C7.53515 0.863999 6.02315 1.52667 4.94048 2.852C3.85782 4.15867 3.31648 5.96933 3.31648 8.284C3.31648 10.0573 3.62448 11.6627 4.24048 13.1C4.85648 14.5373 5.71515 15.6667 6.81648 16.488C7.93648 17.3093 9.20582 17.72 10.6245 17.72ZM40.182 17.664C40.2193 17.664 40.238 17.72 40.238 17.832C40.238 17.944 40.2193 18 40.182 18H36.122C35.674 18 34.8247 17.2067 33.574 15.62C32.342 14.0147 30.8673 11.8213 29.15 9.04C28.7207 9.13333 28.31 9.18 27.918 9.18C27.5633 9.18 27.106 9.16133 26.546 9.124V15.732C26.546 16.292 26.602 16.712 26.714 16.992C26.826 17.2533 27.0313 17.4307 27.33 17.524C27.6473 17.6173 28.142 17.664 28.814 17.664C28.87 17.664 28.898 17.72 28.898 17.832C28.898 17.944 28.87 18 28.814 18C28.2353 18 27.778 17.9907 27.442 17.972L25.426 17.944L23.466 17.972C23.1113 17.9907 22.6353 18 22.038 18C21.982 18 21.954 17.944 21.954 17.832C21.954 17.72 21.982 17.664 22.038 17.664C22.71 17.664 23.2047 17.6173 23.522 17.524C23.8393 17.4307 24.054 17.2533 24.166 16.992C24.278 16.712 24.334 16.292 24.334 15.732V2.768C24.334 2.208 24.278 1.79733 24.166 1.536C24.054 1.27467 23.8393 1.09733 23.522 1.004C23.2233 0.891999 22.738 0.835999 22.066 0.835999C22.0287 0.835999 22.01 0.779999 22.01 0.668C22.01 0.556 22.0287 0.5 22.066 0.5L23.466 0.528C24.2873 0.565332 24.9407 0.583999 25.426 0.583999C25.762 0.583999 26.0793 0.574666 26.378 0.555999C26.6767 0.537333 26.938 0.518666 27.162 0.5C27.778 0.444 28.3567 0.415999 28.898 0.415999C30.4847 0.415999 31.7073 0.733333 32.566 1.368C33.4247 1.984 33.854 2.84267 33.854 3.944C33.854 4.82133 33.5927 5.652 33.07 6.436C32.5473 7.22 31.866 7.85467 31.026 8.34C32.594 10.7107 33.9007 12.568 34.946 13.912C36.01 15.2373 36.9527 16.1987 37.774 16.796C38.5953 17.3747 39.398 17.664 40.182 17.664ZM26.546 8.396C27.2553 8.47067 27.806 8.508 28.198 8.508C29.3927 8.508 30.242 8.24667 30.746 7.724C31.2687 7.18267 31.53 6.25867 31.53 4.952C31.53 3.47733 31.25 2.432 30.69 1.816C30.13 1.2 29.3553 0.892 28.366 0.892C27.8807 0.892 27.5073 0.938667 27.246 1.032C27.0033 1.12533 26.826 1.312 26.714 1.592C26.602 1.85333 26.546 2.264 26.546 2.824V8.396ZM53.3886 13.744C53.3886 13.7067 53.4259 13.688 53.5006 13.688C53.5566 13.688 53.6032 13.7067 53.6406 13.744C53.6966 13.7627 53.7246 13.7813 53.7246 13.8C53.5379 15.144 53.4446 16.404 53.4446 17.58C53.4446 17.7293 53.4166 17.8413 53.3606 17.916C53.3046 17.972 53.1926 18 53.0246 18H41.0966C41.0406 18 41.0126 17.944 41.0126 17.832C41.0126 17.72 41.0406 17.664 41.0966 17.664C41.7686 17.664 42.2539 17.6173 42.5526 17.524C42.8512 17.4307 43.0566 17.2533 43.1686 16.992C43.2806 16.712 43.3366 16.292 43.3366 15.732V2.768C43.3366 2.208 43.2806 1.79733 43.1686 1.536C43.0566 1.27467 42.8419 1.09733 42.5246 1.004C42.2259 0.891999 41.7499 0.835999 41.0966 0.835999C41.0406 0.835999 41.0126 0.779999 41.0126 0.668C41.0126 0.556 41.0406 0.5 41.0966 0.5H52.5206C52.7072 0.5 52.8006 0.583999 52.8006 0.751998L52.8566 4.28C52.8566 4.336 52.8006 4.37333 52.6886 4.392C52.5952 4.392 52.5392 4.364 52.5206 4.308C52.3899 3.28133 52.0259 2.50667 51.4286 1.984C50.8312 1.44267 50.0472 1.172 49.0766 1.172H47.6486C46.8272 1.172 46.2766 1.29333 45.9966 1.536C45.7166 1.76 45.5766 2.208 45.5766 2.88V8.564H48.6566C49.6086 8.564 50.3086 8.40533 50.7566 8.088C51.2046 7.752 51.4286 7.23867 51.4286 6.548C51.4286 6.51067 51.4752 6.492 51.5686 6.492C51.6806 6.492 51.7366 6.51067 51.7366 6.548L51.7086 8.9L51.7366 10.16C51.7739 10.7573 51.7926 11.224 51.7926 11.56C51.7926 11.5973 51.7366 11.616 51.6246 11.616C51.5126 11.616 51.4566 11.5973 51.4566 11.56C51.4566 10.7573 51.2232 10.1693 50.7566 9.796C50.3086 9.404 49.5806 9.208 48.5726 9.208H45.5766V15.62C45.5766 16.292 45.6979 16.7493 45.9406 16.992C46.2019 17.2347 46.7152 17.356 47.4806 17.356H49.3006C50.3646 17.356 51.2419 17.048 51.9326 16.432C52.6419 15.7973 53.1272 14.9013 53.3886 13.744ZM74.9484 0.5C75.0044 0.5 75.0324 0.556 75.0324 0.668C75.0324 0.779999 75.0044 0.835999 74.9484 0.835999C73.4177 0.835999 72.6524 1.80667 72.6524 3.748V18.364C72.6524 18.4013 72.6057 18.4293 72.5124 18.448C72.4377 18.4667 72.3817 18.4573 72.3444 18.42L59.2124 2.852V14.78C59.2124 15.7693 59.3897 16.4973 59.7444 16.964C60.1177 17.4307 60.6777 17.664 61.4244 17.664C61.4804 17.664 61.5084 17.72 61.5084 17.832C61.5084 17.944 61.4804 18 61.4244 18C60.939 18 60.5657 17.9907 60.3044 17.972L58.8764 17.944L57.3644 17.972C57.0844 17.9907 56.6737 18 56.1324 18C56.095 18 56.0764 17.944 56.0764 17.832C56.0764 17.72 56.095 17.664 56.1324 17.664C56.935 17.664 57.523 17.4307 57.8964 16.964C58.2884 16.4973 58.4844 15.7693 58.4844 14.78V2.068C57.663 1.24667 56.851 0.835999 56.0484 0.835999C55.9924 0.835999 55.9644 0.779999 55.9644 0.668C55.9644 0.556 55.9924 0.5 56.0484 0.5L57.1404 0.528C57.3644 0.546666 57.6817 0.555999 58.0924 0.555999L59.5484 0.528C59.7164 0.509333 59.931 0.5 60.1924 0.5C60.3417 0.5 60.4444 0.537333 60.5004 0.611999C60.575 0.667999 60.687 0.807999 60.8364 1.032C61.0044 1.29333 61.2377 1.60133 61.5364 1.956L71.9524 14.528V3.748C71.9524 2.75867 71.775 2.03067 71.4204 1.564C71.0657 1.07867 70.515 0.835999 69.7684 0.835999C69.731 0.835999 69.7124 0.779999 69.7124 0.668C69.7124 0.556 69.731 0.5 69.7684 0.5L70.8884 0.528C71.4484 0.565332 71.9244 0.583999 72.3164 0.583999C72.6524 0.583999 73.1377 0.565332 73.7724 0.528L74.9484 0.5ZM79.8335 3.636C79.8335 4.34533 80.0108 4.97067 80.3655 5.512C80.7202 6.03467 81.1495 6.492 81.6535 6.884C82.1575 7.25733 82.8575 7.71467 83.7535 8.256C84.6868 8.83467 85.4242 9.33867 85.9655 9.768C86.5255 10.1787 87.0015 10.692 87.3935 11.308C87.7855 11.924 87.9815 12.652 87.9815 13.492C87.9815 14.4067 87.7388 15.2373 87.2535 15.984C86.7868 16.712 86.1055 17.2907 85.2095 17.72C84.3322 18.1307 83.3055 18.336 82.1295 18.336C81.3828 18.336 80.6455 18.2427 79.9175 18.056C79.1895 17.888 78.5548 17.636 78.0135 17.3C77.9202 17.244 77.8548 17.1787 77.8175 17.104C77.7802 17.0293 77.7615 16.9173 77.7615 16.768L77.4815 12.764C77.4628 12.6893 77.5002 12.6427 77.5935 12.624C77.7055 12.6053 77.7708 12.6333 77.7895 12.708C78.2375 14.1267 78.8628 15.3307 79.6655 16.32C80.4682 17.3093 81.5135 17.804 82.8015 17.804C83.6788 17.804 84.4068 17.5707 84.9855 17.104C85.5828 16.6187 85.8815 15.8347 85.8815 14.752C85.8815 13.9307 85.6948 13.212 85.3215 12.596C84.9482 11.98 84.4908 11.4667 83.9495 11.056C83.4268 10.6267 82.7175 10.1413 81.8215 9.6C80.9442 9.04 80.2442 8.564 79.7215 8.172C79.2175 7.76133 78.7882 7.26667 78.4335 6.688C78.0788 6.09067 77.9015 5.4 77.9015 4.616C77.9015 3.664 78.1535 2.852 78.6575 2.18C79.1802 1.508 79.8522 1.01333 80.6735 0.695999C81.5135 0.359999 82.3908 0.191999 83.3055 0.191999C84.5562 0.191999 85.6855 0.406666 86.6935 0.835999C86.9735 0.947999 87.1135 1.116 87.1135 1.34L87.2535 4.84C87.2535 4.91467 87.2068 4.96133 87.1135 4.98C87.0202 4.99867 86.9642 4.97067 86.9455 4.896C86.7402 3.888 86.3015 2.936 85.6295 2.04C84.9575 1.12533 84.0055 0.668 82.7735 0.668C81.8402 0.668 81.1122 0.947999 80.5895 1.508C80.0855 2.068 79.8335 2.77733 79.8335 3.636ZM109.794 17.664C109.85 17.664 109.878 17.72 109.878 17.832C109.878 17.944 109.85 18 109.794 18C109.197 18 108.721 17.9907 108.366 17.972L106.35 17.944L104.138 17.972C103.821 17.9907 103.382 18 102.822 18C102.766 18 102.738 17.944 102.738 17.832C102.738 17.72 102.766 17.664 102.822 17.664C103.531 17.664 104.054 17.6173 104.39 17.524C104.726 17.4307 104.95 17.2533 105.062 16.992C105.174 16.712 105.23 16.292 105.23 15.732V9.208H95.0381V15.732C95.0381 16.292 95.0941 16.712 95.2061 16.992C95.3181 17.2533 95.5421 17.4307 95.8781 17.524C96.2141 17.6173 96.7368 17.664 97.4461 17.664C97.4835 17.664 97.5021 17.72 97.5021 17.832C97.5021 17.944 97.4835 18 97.4461 18C96.8488 18 96.3728 17.9907 96.0181 17.972L93.8621 17.944L91.8741 17.972C91.5195 17.9907 91.0341 18 90.4181 18C90.3808 18 90.3621 17.944 90.3621 17.832C90.3621 17.72 90.3808 17.664 90.4181 17.664C91.1088 17.664 91.6128 17.6173 91.9301 17.524C92.2661 17.4307 92.4901 17.2533 92.6021 16.992C92.7328 16.712 92.7981 16.292 92.7981 15.732V2.768C92.7981 2.208 92.7421 1.79733 92.6301 1.536C92.5181 1.27467 92.3035 1.09733 91.9861 1.004C91.6688 0.891999 91.1648 0.835999 90.4741 0.835999C90.4181 0.835999 90.3901 0.779999 90.3901 0.668C90.3901 0.556 90.4181 0.5 90.4741 0.5L91.9021 0.528C92.6861 0.565332 93.3395 0.583999 93.8621 0.583999C94.4595 0.583999 95.1875 0.565332 96.0461 0.528L97.4461 0.5C97.4835 0.5 97.5021 0.556 97.5021 0.668C97.5021 0.779999 97.4835 0.835999 97.4461 0.835999C96.7555 0.835999 96.2421 0.891999 95.9061 1.004C95.5701 1.116 95.3368 1.312 95.2061 1.592C95.0941 1.85333 95.0381 2.264 95.0381 2.824V8.564H105.23V2.824C105.23 2.264 105.165 1.85333 105.034 1.592C104.922 1.312 104.698 1.116 104.362 1.004C104.045 0.891999 103.531 0.835999 102.822 0.835999C102.766 0.835999 102.738 0.779999 102.738 0.668C102.738 0.556 102.766 0.5 102.822 0.5L104.138 0.528C104.997 0.565332 105.734 0.583999 106.35 0.583999C106.873 0.583999 107.545 0.565332 108.366 0.528L109.794 0.5C109.85 0.5 109.878 0.556 109.878 0.668C109.878 0.779999 109.85 0.835999 109.794 0.835999C109.103 0.835999 108.599 0.891999 108.282 1.004C107.965 1.09733 107.741 1.27467 107.61 1.536C107.498 1.79733 107.442 2.208 107.442 2.768V15.732C107.442 16.292 107.498 16.712 107.61 16.992C107.741 17.2533 107.965 17.4307 108.282 17.524C108.599 17.6173 109.103 17.664 109.794 17.664ZM130.535 17.664C130.61 17.664 130.647 17.72 130.647 17.832C130.647 17.944 130.61 18 130.535 18C130.18 18 129.611 17.9813 128.827 17.944C128.08 17.9067 127.53 17.888 127.175 17.888C126.746 17.888 126.214 17.9067 125.579 17.944C124.944 17.9813 124.468 18 124.151 18C124.076 18 124.039 17.944 124.039 17.832C124.039 17.72 124.076 17.664 124.151 17.664C124.786 17.664 125.243 17.608 125.523 17.496C125.803 17.3653 125.943 17.1413 125.943 16.824C125.943 16.5067 125.803 16.068 125.523 15.508L122.387 9.012H117.235L114.939 14.304C114.678 14.92 114.547 15.4333 114.547 15.844C114.547 17.0573 115.452 17.664 117.263 17.664C117.356 17.664 117.403 17.72 117.403 17.832C117.403 17.944 117.356 18 117.263 18C116.927 18 116.442 17.9813 115.807 17.944C115.098 17.9067 114.482 17.888 113.959 17.888C113.474 17.888 112.895 17.9067 112.223 17.944C111.626 17.9813 111.14 18 110.767 18C110.692 18 110.655 17.944 110.655 17.832C110.655 17.72 110.692 17.664 110.767 17.664C111.29 17.664 111.728 17.5613 112.083 17.356C112.456 17.1507 112.811 16.796 113.147 16.292C113.483 15.788 113.866 15.0413 114.295 14.052L120.259 0.303999C120.278 0.247999 120.343 0.219999 120.455 0.219999C120.567 0.201332 120.632 0.229332 120.651 0.303999L127.399 14.164C128.034 15.5267 128.575 16.4507 129.023 16.936C129.471 17.4213 129.975 17.664 130.535 17.664ZM117.487 8.368H122.079L119.671 3.328L117.487 8.368ZM135.996 15.62C135.996 16.1427 136.043 16.5253 136.136 16.768C136.248 16.992 136.444 17.1507 136.724 17.244C137.004 17.3187 137.443 17.356 138.04 17.356H140.42C141.596 17.356 142.567 17.0107 143.332 16.32C144.116 15.6107 144.639 14.6587 144.9 13.464C144.9 13.408 144.947 13.3893 145.04 13.408C145.152 13.408 145.208 13.436 145.208 13.492C145.04 15.1347 144.956 16.4973 144.956 17.58C144.956 17.7293 144.919 17.8413 144.844 17.916C144.788 17.972 144.686 18 144.536 18H131.488C131.451 18 131.432 17.944 131.432 17.832C131.432 17.72 131.451 17.664 131.488 17.664C132.16 17.664 132.646 17.6173 132.944 17.524C133.262 17.4307 133.476 17.2533 133.588 16.992C133.7 16.712 133.756 16.292 133.756 15.732V2.768C133.756 2.208 133.7 1.79733 133.588 1.536C133.476 1.27467 133.262 1.09733 132.944 1.004C132.646 0.891999 132.16 0.835999 131.488 0.835999C131.451 0.835999 131.432 0.779999 131.432 0.668C131.432 0.556 131.451 0.5 131.488 0.5L132.888 0.528C133.71 0.565332 134.372 0.583999 134.876 0.583999C135.38 0.583999 136.043 0.565332 136.864 0.528L138.264 0.5C138.302 0.5 138.32 0.556 138.32 0.668C138.32 0.779999 138.302 0.835999 138.264 0.835999C137.611 0.835999 137.126 0.891999 136.808 1.004C136.491 1.09733 136.276 1.284 136.164 1.564C136.052 1.82533 135.996 2.236 135.996 2.796V15.62ZM47.3317 26.357C47.3317 26.6357 47.4014 26.8813 47.5407 27.094C47.68 27.2993 47.8487 27.479 48.0467 27.633C48.2447 27.7797 48.5197 27.9593 48.8717 28.172C49.2384 28.3993 49.528 28.5973 49.7407 28.766C49.9607 28.9273 50.1477 29.129 50.3017 29.371C50.4557 29.613 50.5327 29.899 50.5327 30.229C50.5327 30.5883 50.4374 30.9147 50.2467 31.208C50.0634 31.494 49.7957 31.7213 49.4437 31.89C49.099 32.0513 48.6957 32.132 48.2337 32.132C47.9404 32.132 47.6507 32.0953 47.3647 32.022C47.0787 31.956 46.8294 31.857 46.6167 31.725C46.58 31.703 46.5544 31.6773 46.5397 31.648C46.525 31.6187 46.5177 31.5747 46.5177 31.516L46.4077 29.943C46.4004 29.9137 46.415 29.8953 46.4517 29.888C46.4957 29.8807 46.5214 29.8917 46.5287 29.921C46.7047 30.4783 46.9504 30.9513 47.2657 31.34C47.581 31.7287 47.9917 31.923 48.4977 31.923C48.8424 31.923 49.1284 31.8313 49.3557 31.648C49.5904 31.4573 49.7077 31.1493 49.7077 30.724C49.7077 30.4013 49.6344 30.119 49.4877 29.877C49.341 29.635 49.1614 29.4333 48.9487 29.272C48.7434 29.1033 48.4647 28.9127 48.1127 28.7C47.768 28.48 47.493 28.293 47.2877 28.139C47.0897 27.9777 46.921 27.7833 46.7817 27.556C46.6424 27.3213 46.5727 27.05 46.5727 26.742C46.5727 26.368 46.6717 26.049 46.8697 25.785C47.075 25.521 47.339 25.3267 47.6617 25.202C47.9917 25.07 48.3364 25.004 48.6957 25.004C49.187 25.004 49.6307 25.0883 50.0267 25.257C50.1367 25.301 50.1917 25.367 50.1917 25.455L50.2467 26.83C50.2467 26.8593 50.2284 26.8777 50.1917 26.885C50.155 26.8923 50.133 26.8813 50.1257 26.852C50.045 26.456 49.8727 26.082 49.6087 25.73C49.3447 25.3707 48.9707 25.191 48.4867 25.191C48.12 25.191 47.834 25.301 47.6287 25.521C47.4307 25.741 47.3317 26.0197 47.3317 26.357ZM53.415 31.109C53.415 31.329 53.437 31.494 53.481 31.604C53.525 31.7067 53.6056 31.7763 53.723 31.813C53.8476 31.8497 54.042 31.868 54.306 31.868C54.3206 31.868 54.328 31.89 54.328 31.934C54.328 31.978 54.3206 32 54.306 32C54.0713 32 53.888 31.9963 53.756 31.989L52.964 31.978L52.194 31.989C52.0546 31.9963 51.864 32 51.622 32C51.6073 32 51.6 31.978 51.6 31.934C51.6 31.89 51.6073 31.868 51.622 31.868C51.886 31.868 52.0803 31.8497 52.205 31.813C52.3296 31.7763 52.414 31.7067 52.458 31.604C52.502 31.494 52.524 31.329 52.524 31.109V26.016C52.524 25.796 52.502 25.6347 52.458 25.532C52.414 25.4293 52.3296 25.3597 52.205 25.323C52.0803 25.279 51.886 25.257 51.622 25.257C51.6073 25.257 51.6 25.235 51.6 25.191C51.6 25.147 51.6073 25.125 51.622 25.125L52.194 25.136C52.5166 25.1507 52.7733 25.158 52.964 25.158C53.1766 25.158 53.4443 25.1507 53.767 25.136L54.306 25.125C54.3206 25.125 54.328 25.147 54.328 25.191C54.328 25.235 54.3206 25.257 54.306 25.257C54.0493 25.257 53.8586 25.279 53.734 25.323C53.6093 25.367 53.525 25.444 53.481 25.554C53.437 25.6567 53.415 25.818 53.415 26.038V31.109ZM62.6215 25.125C62.6435 25.125 62.6545 25.147 62.6545 25.191C62.6545 25.235 62.6435 25.257 62.6215 25.257C62.0202 25.257 61.7195 25.6383 61.7195 26.401V32.143C61.7195 32.1577 61.7012 32.1687 61.6645 32.176C61.6352 32.1833 61.6132 32.1797 61.5985 32.165L56.4395 26.049V30.735C56.4395 31.1237 56.5092 31.4097 56.6485 31.593C56.7952 31.7763 57.0152 31.868 57.3085 31.868C57.3305 31.868 57.3415 31.89 57.3415 31.934C57.3415 31.978 57.3305 32 57.3085 32C57.1179 32 56.9712 31.9963 56.8685 31.989L56.3075 31.978L55.7135 31.989C55.6035 31.9963 55.4422 32 55.2295 32C55.2149 32 55.2075 31.978 55.2075 31.934C55.2075 31.89 55.2149 31.868 55.2295 31.868C55.5449 31.868 55.7759 31.7763 55.9225 31.593C56.0765 31.4097 56.1535 31.1237 56.1535 30.735V25.741C55.8309 25.4183 55.5119 25.257 55.1965 25.257C55.1745 25.257 55.1635 25.235 55.1635 25.191C55.1635 25.147 55.1745 25.125 55.1965 25.125L55.6255 25.136C55.7135 25.1433 55.8382 25.147 55.9995 25.147L56.5715 25.136C56.6375 25.1287 56.7219 25.125 56.8245 25.125C56.8832 25.125 56.9235 25.1397 56.9455 25.169C56.9749 25.191 57.0189 25.246 57.0775 25.334C57.1435 25.4367 57.2352 25.5577 57.3525 25.697L61.4445 30.636V26.401C61.4445 26.0123 61.3749 25.7263 61.2355 25.543C61.0962 25.3523 60.8799 25.257 60.5865 25.257C60.5719 25.257 60.5645 25.235 60.5645 25.191C60.5645 25.147 60.5719 25.125 60.5865 25.125L61.0265 25.136C61.2465 25.1507 61.4335 25.158 61.5875 25.158C61.7195 25.158 61.9102 25.1507 62.1595 25.136L62.6215 25.125ZM67.4337 25.004C67.771 25.004 68.1193 25.037 68.4787 25.103C68.838 25.1617 69.124 25.246 69.3367 25.356C69.3953 25.3853 69.432 25.4183 69.4467 25.455C69.4687 25.4843 69.487 25.5393 69.5017 25.62L69.6227 26.951C69.6227 26.973 69.6043 26.9877 69.5677 26.995C69.531 26.995 69.509 26.984 69.5017 26.962C69.311 26.39 68.9993 25.9647 68.5667 25.686C68.134 25.4 67.6133 25.257 67.0047 25.257C66.4693 25.257 66.0037 25.3817 65.6077 25.631C65.2117 25.873 64.9073 26.2177 64.6947 26.665C64.4893 27.1123 64.3867 27.6293 64.3867 28.216C64.3867 28.898 64.5187 29.525 64.7827 30.097C65.0467 30.669 65.4023 31.1237 65.8497 31.461C66.3043 31.791 66.7993 31.956 67.3347 31.956C68.3907 31.956 69.146 31.351 69.6007 30.141C69.6007 30.119 69.6153 30.108 69.6447 30.108C69.6667 30.108 69.685 30.1117 69.6997 30.119C69.7217 30.1263 69.7327 30.1373 69.7327 30.152L69.5787 31.483C69.564 31.571 69.5457 31.6297 69.5237 31.659C69.509 31.681 69.4687 31.7067 69.4027 31.736C68.728 32 68.0387 32.132 67.3347 32.132C66.4473 32.132 65.7067 31.956 65.1127 31.604C64.5187 31.2447 64.0823 30.79 63.8037 30.24C63.525 29.69 63.3857 29.1143 63.3857 28.513C63.3857 27.831 63.5727 27.226 63.9467 26.698C64.328 26.1627 64.8267 25.7483 65.4427 25.455C66.066 25.1543 66.7297 25.004 67.4337 25.004ZM75.5071 30.328C75.5071 30.3133 75.5217 30.306 75.5511 30.306C75.5731 30.306 75.5914 30.3133 75.6061 30.328C75.6281 30.3353 75.6391 30.3427 75.6391 30.35C75.5657 30.878 75.5291 31.373 75.5291 31.835C75.5291 31.8937 75.5181 31.9377 75.4961 31.967C75.4741 31.989 75.4301 32 75.3641 32H70.6781C70.6561 32 70.6451 31.978 70.6451 31.934C70.6451 31.89 70.6561 31.868 70.6781 31.868C70.9421 31.868 71.1327 31.8497 71.2501 31.813C71.3674 31.7763 71.4481 31.7067 71.4921 31.604C71.5361 31.494 71.5581 31.329 71.5581 31.109V26.016C71.5581 25.796 71.5361 25.6347 71.4921 25.532C71.4481 25.4293 71.3637 25.3597 71.2391 25.323C71.1217 25.279 70.9347 25.257 70.6781 25.257C70.6561 25.257 70.6451 25.235 70.6451 25.191C70.6451 25.147 70.6561 25.125 70.6781 25.125H75.1661C75.2394 25.125 75.2761 25.158 75.2761 25.224L75.2981 26.61C75.2981 26.632 75.2761 26.6467 75.2321 26.654C75.1954 26.654 75.1734 26.643 75.1661 26.621C75.1147 26.2177 74.9717 25.9133 74.7371 25.708C74.5024 25.4953 74.1944 25.389 73.8131 25.389H73.2521C72.9294 25.389 72.7131 25.4367 72.6031 25.532C72.4931 25.62 72.4381 25.796 72.4381 26.06V28.293H73.6481C74.0221 28.293 74.2971 28.2307 74.4731 28.106C74.6491 27.974 74.7371 27.7723 74.7371 27.501C74.7371 27.4863 74.7554 27.479 74.7921 27.479C74.8361 27.479 74.8581 27.4863 74.8581 27.501L74.8471 28.425L74.8581 28.92C74.8727 29.1547 74.8801 29.338 74.8801 29.47C74.8801 29.4847 74.8581 29.492 74.8141 29.492C74.7701 29.492 74.7481 29.4847 74.7481 29.47C74.7481 29.1547 74.6564 28.9237 74.4731 28.777C74.2971 28.623 74.0111 28.546 73.6151 28.546H72.4381V31.065C72.4381 31.329 72.4857 31.5087 72.5811 31.604C72.6837 31.6993 72.8854 31.747 73.1861 31.747H73.9011C74.3191 31.747 74.6637 31.626 74.9351 31.384C75.2137 31.1347 75.4044 30.7827 75.5071 30.328ZM83.0911 32H80.3311V31.72H80.7111C81.1377 31.72 81.3511 31.5667 81.3511 31.26V26.54C81.3511 26.3467 81.2744 26.2067 81.1211 26.12C80.9677 26.0267 80.6711 25.98 80.2311 25.98V25.7C80.9644 25.7 81.5511 25.48 81.9911 25.04L82.2311 25V31.26C82.2311 31.4467 82.2711 31.57 82.3511 31.63C82.4311 31.69 82.5977 31.72 82.8511 31.72H83.0911V32ZM84.4508 32.14L84.3508 31.84C85.0975 31.4867 85.7475 31.0667 86.3008 30.58C86.8542 30.0933 87.2775 29.48 87.5708 28.74C87.1908 29.1 86.6108 29.28 85.8308 29.28C85.3308 29.28 84.8975 29.07 84.5308 28.65C84.1708 28.2233 83.9908 27.76 83.9908 27.26C83.9908 26.62 84.2308 26.0833 84.7108 25.65C85.1908 25.2167 85.7508 25 86.3908 25C87.0308 25 87.5508 25.2167 87.9508 25.65C88.3508 26.0833 88.5508 26.6267 88.5508 27.28C88.5508 27.9333 88.4408 28.53 88.2208 29.07C88.0008 29.61 87.6975 30.0733 87.3108 30.46C86.5508 31.2267 85.5975 31.7867 84.4508 32.14ZM85.1308 28.05C85.2575 28.2633 85.4342 28.4433 85.6608 28.59C85.8942 28.73 86.1708 28.8 86.4908 28.8C86.8175 28.8 87.0875 28.67 87.3008 28.41C87.5208 28.15 87.6308 27.8267 87.6308 27.44C87.6308 26.8867 87.4642 26.4233 87.1308 26.05C86.7975 25.67 86.3975 25.48 85.9308 25.48C85.5642 25.48 85.2708 25.6133 85.0508 25.88C84.8375 26.14 84.7308 26.46 84.7308 26.84C84.7308 27.2133 84.8642 27.6167 85.1308 28.05ZM93.0831 26.12C93.0831 26.7733 92.5498 27.3867 91.4831 27.96L91.5031 28C91.7098 27.9067 91.9031 27.86 92.0831 27.86C92.5698 27.86 92.9664 28.0133 93.2731 28.32C93.5864 28.62 93.7431 29.0467 93.7431 29.6C93.7431 30.36 93.4598 30.9733 92.8931 31.44C92.3264 31.9067 91.6631 32.14 90.9031 32.14C90.5164 32.14 90.1931 32.0933 89.9331 32C89.6798 31.9133 89.4231 31.7533 89.1631 31.52L89.3231 30.46H89.5831C89.6764 30.8467 89.8231 31.1433 90.0231 31.35C90.2298 31.5567 90.5931 31.66 91.1131 31.66C91.6398 31.66 92.0531 31.5133 92.3531 31.22C92.6531 30.92 92.8031 30.52 92.8031 30.02C92.8031 29.52 92.6764 29.1267 92.4231 28.84C92.1698 28.5467 91.8031 28.4 91.3231 28.4C91.0231 28.4 90.7498 28.4333 90.5031 28.5V28.22L90.9431 27.98C91.3631 27.7733 91.6498 27.5533 91.8031 27.32C91.9631 27.08 92.0431 26.8 92.0431 26.48C92.0431 25.9467 91.7098 25.68 91.0431 25.68C90.6498 25.68 90.2798 25.8267 89.9331 26.12C89.7598 26.2667 89.6264 26.3867 89.5331 26.48L89.3431 26.28C89.8698 25.4267 90.6564 25 91.7031 25C92.1364 25 92.4731 25.1067 92.7131 25.32C92.9598 25.5267 93.0831 25.7933 93.0831 26.12ZM94.9 32.14L94.8 31.84C95.5467 31.4867 96.1967 31.0667 96.75 30.58C97.3034 30.0933 97.7267 29.48 98.02 28.74C97.64 29.1 97.06 29.28 96.28 29.28C95.78 29.28 95.3467 29.07 94.98 28.65C94.62 28.2233 94.44 27.76 94.44 27.26C94.44 26.62 94.68 26.0833 95.16 25.65C95.64 25.2167 96.2 25 96.84 25C97.48 25 98 25.2167 98.4 25.65C98.8 26.0833 99 26.6267 99 27.28C99 27.9333 98.89 28.53 98.67 29.07C98.45 29.61 98.1467 30.0733 97.76 30.46C97 31.2267 96.0467 31.7867 94.9 32.14ZM95.58 28.05C95.7067 28.2633 95.8834 28.4433 96.11 28.59C96.3434 28.73 96.62 28.8 96.94 28.8C97.2667 28.8 97.5367 28.67 97.75 28.41C97.97 28.15 98.08 27.8267 98.08 27.44C98.08 26.8867 97.9134 26.4233 97.58 26.05C97.2467 25.67 96.8467 25.48 96.38 25.48C96.0134 25.48 95.72 25.6133 95.5 25.88C95.2867 26.14 95.18 26.46 95.18 26.84C95.18 27.2133 95.3134 27.6167 95.58 28.05Z" fill="white"/>
</svg>
