<?xml version="1.0" encoding="utf-8"?>
<!-- Generator: Adobe Illustrator 26.0.1, SVG Export Plug-In . SVG Version: 6.00 Build 0)  -->
<svg version="1.1" id="DESIGNED_BY_FREEPIK" xmlns="http://www.w3.org/2000/svg" xmlns:xlink="http://www.w3.org/1999/xlink"
	 x="0px" y="0px" viewBox="0 0 14.4 10.6" style="enable-background:new 0 0 14.4 10.6;" xml:space="preserve">
<style type="text/css">
	.st0{fill:#A7296C;}
</style>
<g>
	<g>
		<path class="st0" d="M13.8,9h-1.7c-0.3,0-0.6-0.3-0.6-0.6c0-0.5-0.4-1-1-1c-0.5,0-1,0.4-1,1C9.5,8.7,9.2,9,8.9,9H5.7
			C5.4,9,5.1,8.7,5.1,8.4c0-0.5-0.4-1-1-1s-1,0.4-1,1C3.2,8.7,2.9,9,2.6,9h-1C0.7,9,0,8.3,0,7.4V1.6C0,0.7,0.7,0,1.6,0h6.6
			C9,0,9.8,0.7,9.8,1.6V2h0.6c2.1,0,3.8,1.5,4,3.5l0,0c0,0.2,0,0.4,0,0.7v2.2C14.4,8.7,14.1,9,13.8,9z M12.6,7.8h0.6V6.2
			c0-0.2,0-0.4,0-0.6c-0.1-1.4-1.4-2.5-2.8-2.5H9.2c-0.3,0-0.6-0.3-0.6-0.6v-1c0-0.2-0.2-0.4-0.4-0.4H1.6c-0.2,0-0.4,0.2-0.4,0.4
			v5.8c0,0.2,0.2,0.4,0.4,0.4h0.5c0.3-0.9,1.1-1.6,2.1-1.6S6,6.9,6.3,7.8h2.1c0.3-0.9,1.1-1.6,2.1-1.6C11.5,6.2,12.3,6.9,12.6,7.8z"
			/>
	</g>
</g>
<g>
	<g>
		<rect x="8.6" y="2.6" class="st0" width="1.2" height="2.2"/>
	</g>
</g>
<g>
	<g>
		<path class="st0" d="M4.2,10.6C3,10.6,2,9.6,2,8.4s1-2.2,2.2-2.2s2.2,1,2.2,2.2C6.3,9.6,5.4,10.6,4.2,10.6z M4.2,7.4
			c-0.5,0-1,0.4-1,1s0.4,1,1,1s1-0.4,1-1S4.7,7.4,4.2,7.4z"/>
	</g>
</g>
<g>
	<g>
		<path class="st0" d="M10.5,10.6c-1.2,0-2.2-1-2.2-2.2s1-2.2,2.2-2.2s2.2,1,2.2,2.2S11.7,10.6,10.5,10.6z M10.5,7.4
			c-0.5,0-1,0.4-1,1s0.4,1,1,1s1-0.4,1-1C11.5,7.9,11,7.4,10.5,7.4z"/>
	</g>
</g>
</svg>
