<?xml version="1.0" encoding="utf-8"?>
<!-- Generator: Adobe Illustrator 26.0.1, SVG Export Plug-In . SVG Version: 6.00 Build 0)  -->
<svg version="1.1" id="DESIGNED_BY_FREEPIK" xmlns="http://www.w3.org/2000/svg" xmlns:xlink="http://www.w3.org/1999/xlink"
	 x="0px" y="0px" viewBox="0 0 13.5 13.1" style="enable-background:new 0 0 13.5 13.1;" xml:space="preserve">
<style type="text/css">
	.st0{fill:#F39A08;}
</style>
<g>
	<path class="st0" d="M6.8,13.1c-0.1,0-0.2,0-0.3-0.1l-6.2-3C0.1,9.9,0,9.7,0,9.5V3.6c0-0.2,0.1-0.4,0.3-0.5C0.5,3,0.7,3,0.9,3.1
		l6.2,3c0.2,0.1,0.3,0.3,0.3,0.5v5.9c0,0.2-0.1,0.4-0.3,0.5C7,13,6.9,13.1,6.8,13.1z M1.2,9.1l4.9,2.4V7L1.2,4.6V9.1z"/>
</g>
<g>
	<path class="st0" d="M6.8,13.1c-0.1,0-0.2,0-0.3-0.1c-0.2-0.1-0.3-0.3-0.3-0.5V6.6c0-0.2,0.1-0.4,0.3-0.5l6.1-3
		C12.8,3,13,3,13.2,3.1c0.2,0.1,0.3,0.3,0.3,0.5v5.9c0,0.2-0.1,0.4-0.3,0.5L7,13C6.9,13.1,6.8,13.1,6.8,13.1z M7.3,7v4.5l4.9-2.4
		V4.6L7.3,7z"/>
</g>
<g>
	<path class="st0" d="M12.9,4.2c-0.1,0-0.2,0-0.3-0.1L6.8,1.3L0.9,4.1c-0.3,0.2-0.7,0-0.8-0.3c-0.2-0.3,0-0.7,0.3-0.8l6.2-3
		C6.7,0,6.9,0,7,0.1l6.1,3c0.3,0.2,0.4,0.5,0.3,0.8C13.3,4.1,13.1,4.2,12.9,4.2z"/>
</g>
<g>
	<path class="st0" d="M3.7,5.7c-0.2,0-0.4-0.1-0.5-0.3C3,5.1,3.1,4.7,3.4,4.6l6.1-3c0.3-0.1,0.7,0,0.8,0.3s0,0.7-0.3,0.8l-6.2,3
		C3.8,5.7,3.8,5.7,3.7,5.7z"/>
</g>
</svg>
