<svg width="36" height="36" viewBox="0 0 36 36" fill="none" xmlns="http://www.w3.org/2000/svg">
<path d="M34.2997 6.19734L29.8023 1.70001C29.1808 1.07766 28.3546 0.734863 27.4752 0.734863C26.5958 0.734863 25.7697 1.07696 25.1481 1.69931L4.06257 22.8507L0.734375 35.2646L13.2357 31.9163L34.2982 10.8523C34.9212 10.2299 35.2656 9.40371 35.2656 8.52447C35.2656 7.64523 34.9212 6.81899 34.2997 6.19734ZM5.78827 23.2363L21.7401 7.22304L28.779 14.2603L12.7956 30.2436L5.78827 23.2363ZM5.11884 24.6803L11.3223 30.8832L6.3933 32.2025L3.79731 29.6064L5.11884 24.6803ZM33.2418 9.79521L30.9759 12.0625L23.9342 5.02517L26.206 2.75558C26.8828 2.07581 28.0677 2.07651 28.7459 2.75558L33.2433 7.25361C33.5832 7.5928 33.7715 8.04405 33.7715 8.52366C33.7715 9.00338 33.5832 9.45532 33.2418 9.79521Z" fill="#C5A994"/>
</svg>
