<svg width="130" height="130" viewBox="0 0 130 130" fill="none" xmlns="http://www.w3.org/2000/svg">
<g clip-path="url(#clip0_640_27942)">
<path d="M66.363 84.015C79.115 84.015 89.4525 73.6775 89.4525 60.9255C89.4525 48.1735 79.115 37.8359 66.363 37.8359C53.611 37.8359 43.2734 48.1735 43.2734 60.9255C43.2734 73.6775 53.611 84.015 66.363 84.015Z" stroke="#BDA08F" stroke-linecap="round" stroke-linejoin="round"/>
<path d="M24.2578 113.895C27.0469 105.212 32.4925 97.6431 39.813 92.2747C47.1336 86.9063 55.9527 84.0146 65.0044 84.0146C74.0558 84.0146 82.8745 86.9061 90.1949 92.2741C97.5153 97.642 102.961 105.21 105.75 113.893" stroke="#BDA08F" stroke-linecap="round" stroke-linejoin="round"/>
<path d="M65.002 128.666C100.164 128.666 128.668 100.162 128.668 65C128.668 29.8382 100.164 1.33398 65.002 1.33398C29.8402 1.33398 1.33594 29.8382 1.33594 65C1.33594 100.162 29.8402 128.666 65.002 128.666Z" stroke="#BDA08F" stroke-linecap="round" stroke-linejoin="round"/>
</g>
<defs>
<clipPath id="clip0_640_27942">
<rect width="130" height="130" fill="white"/>
</clipPath>
</defs>
</svg>
